<svg width="189" height="101" viewBox="0 0 189 101" fill="none" xmlns="http://www.w3.org/2000/svg">
<g clip-path="url(#clip0_1021_4728)">
<path d="M170.445 89.7604L93.055 12.3804L15.675 89.7604L15.165 89.2604L93.055 11.3604L170.945 89.2604L170.445 89.7604Z" fill="white"/>
<path d="M93.055 90.0201L15.165 12.1301L15.675 11.6201L93.055 89.0001L170.445 11.6201L170.945 12.1301L93.055 90.0201Z" fill="white"/>
<path d="M93.055 100.69C86.885 100.69 81.875 95.6701 81.875 89.5101C81.875 83.3501 86.895 78.3301 93.055 78.3301C99.215 78.3301 104.235 83.3501 104.235 89.5101C104.235 95.6701 99.215 100.69 93.055 100.69ZM93.055 80.4801C88.075 80.4801 84.035 84.5301 84.035 89.5001C84.035 94.4701 88.085 98.5201 93.055 98.5201C98.025 98.5201 102.075 94.4701 102.075 89.5001C102.075 84.5301 98.025 80.4801 93.055 80.4801Z" fill="white"/>
<path d="M170.485 100.69C164.315 100.69 159.305 95.6701 159.305 89.5101C159.305 83.3501 164.325 78.3301 170.485 78.3301C173.285 78.3301 175.965 79.3701 178.035 81.2601L176.585 82.8501C174.915 81.3201 172.755 80.4801 170.495 80.4801C165.515 80.4801 161.475 84.5301 161.475 89.5001C161.475 94.4701 165.525 98.5201 170.495 98.5201V100.68L170.485 100.69Z" fill="white"/>
<path d="M172.135 100.57L171.825 98.4398C172.245 98.3798 172.665 98.2898 173.075 98.1598L173.695 100.23C173.185 100.38 172.665 100.5 172.135 100.57ZM176.565 98.8898L175.385 97.0798C175.745 96.8498 176.085 96.5898 176.415 96.3098L177.835 97.9398C177.435 98.2898 177.015 98.6098 176.565 98.8998V98.8898ZM179.905 95.5298L178.085 94.3698C178.315 94.0098 178.525 93.6298 178.695 93.2398L180.655 94.1298C180.435 94.6098 180.185 95.0798 179.895 95.5298H179.905ZM181.555 91.0898L179.425 90.7898C179.485 90.3698 179.515 89.9398 179.515 89.5098H181.675C181.675 90.0398 181.635 90.5698 181.565 91.0898H181.555Z" fill="white"/>
<path d="M181.305 89.5103H179.865C179.865 86.8803 178.755 84.3603 176.815 82.5903L177.785 81.5303C180.015 83.5803 181.305 86.4903 181.305 89.5203V89.5103Z" fill="white"/>
<path d="M15.4151 100.69C9.24511 100.69 4.23511 95.6701 4.23511 89.5101C4.23511 83.3501 9.25511 78.3301 15.4151 78.3301C21.5751 78.3301 26.5951 83.3501 26.5951 89.5101C26.5951 95.6701 21.5751 100.69 15.4151 100.69ZM15.4151 80.4801C10.4351 80.4801 6.39511 84.5301 6.39511 89.5001C6.39511 94.4701 10.4451 98.5201 15.4151 98.5201C20.3851 98.5201 24.4351 94.4701 24.4351 89.5001C24.4351 84.5301 20.3851 80.4801 15.4151 80.4801Z" fill="white"/>
<path d="M131.775 61.9801C125.605 61.9801 120.595 56.9601 120.595 50.8001C120.595 44.6401 125.615 39.6201 131.775 39.6201C137.935 39.6201 142.955 44.6401 142.955 50.8001C142.955 56.9601 137.935 61.9801 131.775 61.9801ZM131.775 41.7701C126.795 41.7701 122.755 45.8201 122.755 50.7901C122.755 55.7601 126.805 59.8201 131.775 59.8201C136.745 59.8201 140.795 55.7701 140.795 50.7901C140.795 45.8101 136.745 41.7701 131.775 41.7701Z" fill="white"/>
<path d="M170.485 23.2604C164.315 23.2604 159.305 18.2404 159.305 12.0804C159.305 5.92039 164.325 0.900391 170.485 0.900391C176.645 0.900391 181.665 5.92039 181.665 12.0804C181.665 18.2404 176.645 23.2604 170.485 23.2604ZM170.485 3.05039C165.505 3.05039 161.465 7.10039 161.465 12.0704C161.465 17.0404 165.515 21.0904 170.485 21.0904C175.455 21.0904 179.505 17.0404 179.505 12.0704C179.505 7.10039 175.455 3.05039 170.485 3.05039Z" fill="white"/>
<path d="M93.055 23.2604C86.885 23.2604 81.875 18.2404 81.875 12.0804C81.875 5.92039 86.895 0.900391 93.055 0.900391C99.215 0.900391 104.235 5.92039 104.235 12.0804C104.235 18.2404 99.215 23.2604 93.055 23.2604ZM93.055 3.05039C88.075 3.05039 84.035 7.10039 84.035 12.0704C84.035 17.0404 88.085 21.0904 93.055 21.0904C98.025 21.0904 102.075 17.0404 102.075 12.0704C102.075 7.10039 98.025 3.05039 93.055 3.05039Z" fill="white"/>
<path d="M54.3951 61.8698C48.2251 61.8698 43.2151 56.8498 43.2151 50.6898C43.2151 44.5298 48.2351 39.5098 54.3951 39.5098C60.5551 39.5098 65.5751 44.5298 65.5751 50.6898C65.5751 56.8498 60.5551 61.8698 54.3951 61.8698ZM54.3951 41.6598C49.4151 41.6598 45.3751 45.7098 45.3751 50.6798C45.3751 55.6498 49.4251 59.7098 54.3951 59.7098C59.3651 59.7098 63.4251 55.6598 63.4251 50.6798C63.4251 45.6998 59.3751 41.6598 54.3951 41.6598Z" fill="white"/>
<path d="M15.7349 23.0504C9.56493 23.0504 4.55493 18.0304 4.55493 11.8704C4.55493 5.71043 9.56493 0.69043 15.7349 0.69043C21.9049 0.69043 26.9149 5.71043 26.9149 11.8704C26.9149 18.0304 21.8949 23.0504 15.7349 23.0504ZM15.7349 2.84043C10.7549 2.84043 6.71493 6.89043 6.71493 11.8604C6.71493 16.8304 10.7649 20.8804 15.7349 20.8804C20.7049 20.8804 24.7549 16.8304 24.7549 11.8604C24.7549 6.89043 20.7049 2.85043 15.7349 2.85043V2.84043Z" fill="white"/>
</g>
<defs>
<clipPath id="clip0_1021_4728">
<rect width="188" height="100" fill="white" transform="translate(0.665039 0.580078)"/>
</clipPath>
</defs>
</svg>
