<svg width="1440" height="960" viewBox="0 0 1440 960" fill="none" xmlns="http://www.w3.org/2000/svg">
<g clip-path="url(#clip0_242_1991)">
<rect width="1440" height="960" fill="#231F20"/>
<path d="M1350.97 812.114C1331.62 813.03 1313.91 823.098 1303.1 839.317C1297.65 847.53 1294.34 856.755 1293.23 866.898C1292.92 869.741 1292.92 876.381 1293.23 879.224C1294.76 893.21 1300.59 905.695 1310.22 915.579C1314.05 919.508 1318.2 922.78 1322.92 925.598C1325.41 927.088 1330.8 929.662 1332.47 930.175L1332.74 930.248L1332.75 908.366C1332.75 887.742 1332.77 886.496 1332.96 886.789C1336.56 892.073 1341.67 895.747 1347.53 897.285C1358.02 900.03 1368.88 895.906 1374.91 886.875C1377.62 882.811 1379.01 878.124 1379.01 873.06C1379.01 870.766 1378.79 868.985 1378.26 866.91C1378.07 866.129 1377.91 865.482 1377.91 865.458C1377.91 865.371 1393.04 865.445 1393.09 865.531C1393.13 865.592 1393.27 866.422 1393.43 867.398C1393.67 868.936 1393.7 869.619 1393.71 872.998C1393.71 876.098 1393.67 877.123 1393.49 878.307C1392.15 887.228 1388.53 894.636 1382.5 900.811C1376.01 907.438 1368.19 911.331 1358.8 912.613C1356.14 912.979 1349.65 912.881 1348.22 912.466C1348.01 912.404 1348 912.967 1348 923.071V933.749L1348.4 933.822C1348.61 933.871 1350.61 933.933 1352.82 933.969C1356 934.031 1357.33 934.006 1359.11 933.847C1366.86 933.175 1373.75 931.284 1380.53 927.989C1383.48 926.561 1384.98 925.694 1387.8 923.816C1394.72 919.215 1400.36 913.564 1404.95 906.62C1414.32 892.463 1417.32 874.768 1413.17 858.219C1408.85 840.987 1397.34 826.611 1381.44 818.569C1379.51 817.593 1375.63 815.884 1375.33 815.884C1375.27 815.884 1375.22 824.365 1375.22 837.632V859.392L1374.97 858.977C1373.97 857.341 1371.41 854.534 1369.67 853.168C1365.87 850.19 1361.69 848.445 1357.04 847.86C1355.55 847.676 1352.07 847.713 1350.58 847.922C1346.27 848.531 1342.42 850.13 1338.88 852.766C1335.28 855.451 1332.38 859.283 1330.67 863.591C1328.8 868.302 1328.45 873.903 1329.7 878.858C1329.9 879.627 1330.06 880.273 1330.06 880.299C1330.06 880.312 1326.64 880.312 1322.47 880.299L1314.86 880.261L1314.72 879.408C1313.91 874.623 1314.06 868.863 1315.12 864.129C1315.85 860.834 1316.72 858.393 1318.34 855.123C1324.37 842.882 1336 834.729 1349.65 833.155C1351.86 832.898 1356.18 832.898 1358.26 833.142C1359.1 833.253 1359.82 833.337 1359.88 833.337C1359.93 833.337 1359.97 828.615 1359.97 822.854V812.37L1359.64 812.297C1359.25 812.21 1354.18 811.966 1353.44 812.004C1353.17 812.004 1352.06 812.066 1350.97 812.114H1350.97Z" fill="white"/>
<circle cx="262.987" cy="480.352" r="265.351" transform="rotate(-90 262.987 480.352)" fill="#231F20" stroke="white" stroke-width="2"/>
<circle cx="-2.6077" cy="479.595" r="128.392" transform="rotate(-90 -2.6077 479.595)" fill="#231F20" stroke="white" stroke-width="2"/>
<circle cx="531.608" cy="479.595" r="128.392" transform="rotate(-90 531.608 479.595)" fill="#231F20" stroke="white" stroke-width="2"/>
<circle cx="530.852" cy="478.838" r="34.2939" transform="rotate(-90 530.852 478.838)" stroke="white" stroke-width="2"/>
<rect x="162.105" y="488.918" width="20.1603" height="206.304" transform="rotate(-90 162.105 488.918)" stroke="white" stroke-width="2"/>
<rect x="213.559" y="522.212" width="20.1603" height="97.3417" transform="rotate(-90 213.559 522.212)" stroke="white" stroke-width="2"/>
<rect x="213.559" y="455.624" width="20.1603" height="97.3417" transform="rotate(-90 213.559 455.624)" stroke="white" stroke-width="2"/>
</g>
<defs>
<clipPath id="clip0_242_1991">
<rect width="1440" height="960" fill="white"/>
</clipPath>
</defs>
</svg>
