<svg xmlns="http://www.w3.org/2000/svg" xmlns:xlink="http://www.w3.org/1999/xlink" width="150" zoomAndPan="magnify" viewBox="0 0 112.5 67.499998" height="90" preserveAspectRatio="xMidYMid meet" version="1.0"><defs><g/><clipPath id="9639f56455"><path d="M 0.164062 0 L 111.839844 0 L 111.839844 67.003906 L 0.164062 67.003906 Z M 0.164062 0 " clip-rule="nonzero"/></clipPath></defs><g clip-path="url(#9639f56455)"><path fill="#ffffff" d="M 0.164062 0 L 111.839844 0 L 111.839844 67.003906 L 0.164062 67.003906 Z M 0.164062 0 " fill-opacity="1" fill-rule="nonzero"/><path fill="#698dff" d="M 0.164062 0 L 111.839844 0 L 111.839844 67.003906 L 0.164062 67.003906 Z M 0.164062 0 " fill-opacity="1" fill-rule="nonzero"/></g><g fill="#ffffff" fill-opacity="1"><g transform="translate(8.744472, 39.085475)"><g><path d="M 1.359375 0 L 1.359375 -13.09375 L 5.125 -13.09375 C 6.726562 -13.09375 8.109375 -12.828125 9.265625 -12.296875 C 10.421875 -11.773438 11.304688 -11.023438 11.921875 -10.046875 C 12.546875 -9.078125 12.859375 -7.910156 12.859375 -6.546875 C 12.859375 -5.191406 12.546875 -4.023438 11.921875 -3.046875 C 11.304688 -2.066406 10.421875 -1.3125 9.265625 -0.78125 C 8.109375 -0.257812 6.726562 0 5.125 0 Z M 2.890625 -1.359375 L 5.1875 -1.359375 C 6.476562 -1.359375 7.578125 -1.5625 8.484375 -1.96875 C 9.390625 -2.375 10.082031 -2.960938 10.5625 -3.734375 C 11.039062 -4.515625 11.28125 -5.453125 11.28125 -6.546875 C 11.28125 -7.640625 11.039062 -8.570312 10.5625 -9.34375 C 10.082031 -10.125 9.390625 -10.71875 8.484375 -11.125 C 7.578125 -11.53125 6.476562 -11.734375 5.1875 -11.734375 L 2.890625 -11.734375 Z M 2.890625 -1.359375 "/></g></g><g transform="translate(22.337144, 39.085475)"><g><path d="M 9 -1.078125 C 7.925781 -0.242188 6.734375 0.171875 5.421875 0.171875 C 4.515625 0.171875 3.703125 -0.03125 2.984375 -0.4375 C 2.265625 -0.84375 1.695312 -1.394531 1.28125 -2.09375 C 0.863281 -2.800781 0.65625 -3.597656 0.65625 -4.484375 C 0.65625 -5.328125 0.847656 -6.082031 1.234375 -6.75 C 1.617188 -7.414062 2.144531 -7.941406 2.8125 -8.328125 C 3.476562 -8.710938 4.238281 -8.90625 5.09375 -8.90625 C 5.957031 -8.90625 6.722656 -8.691406 7.390625 -8.265625 C 8.054688 -7.847656 8.578125 -7.265625 8.953125 -6.515625 C 9.328125 -5.773438 9.515625 -4.914062 9.515625 -3.9375 L 9.515625 -3.671875 L 2.203125 -3.671875 C 2.304688 -3.148438 2.515625 -2.703125 2.828125 -2.328125 C 3.148438 -1.953125 3.546875 -1.660156 4.015625 -1.453125 C 4.492188 -1.242188 5.023438 -1.140625 5.609375 -1.140625 C 6.609375 -1.140625 7.519531 -1.46875 8.34375 -2.125 Z M 2.15625 -4.890625 L 8.15625 -4.890625 C 8.09375 -5.429688 7.925781 -5.898438 7.65625 -6.296875 C 7.382812 -6.703125 7.035156 -7.019531 6.609375 -7.25 C 6.179688 -7.476562 5.703125 -7.59375 5.171875 -7.59375 C 4.628906 -7.59375 4.140625 -7.476562 3.703125 -7.25 C 3.273438 -7.019531 2.925781 -6.703125 2.65625 -6.296875 C 2.382812 -5.898438 2.21875 -5.429688 2.15625 -4.890625 Z M 2.15625 -4.890625 "/></g></g><g transform="translate(32.501112, 39.085475)"><g><path d="M 9.375 -8.734375 L 5.703125 0 L 4.328125 0 L 0.65625 -8.734375 L 2.203125 -8.734375 L 5.03125 -1.5 L 7.859375 -8.734375 Z M 9.375 -8.734375 "/></g></g><g transform="translate(42.534214, 39.085475)"><g><path d="M 9 -1.078125 C 7.925781 -0.242188 6.734375 0.171875 5.421875 0.171875 C 4.515625 0.171875 3.703125 -0.03125 2.984375 -0.4375 C 2.265625 -0.84375 1.695312 -1.394531 1.28125 -2.09375 C 0.863281 -2.800781 0.65625 -3.597656 0.65625 -4.484375 C 0.65625 -5.328125 0.847656 -6.082031 1.234375 -6.75 C 1.617188 -7.414062 2.144531 -7.941406 2.8125 -8.328125 C 3.476562 -8.710938 4.238281 -8.90625 5.09375 -8.90625 C 5.957031 -8.90625 6.722656 -8.691406 7.390625 -8.265625 C 8.054688 -7.847656 8.578125 -7.265625 8.953125 -6.515625 C 9.328125 -5.773438 9.515625 -4.914062 9.515625 -3.9375 L 9.515625 -3.671875 L 2.203125 -3.671875 C 2.304688 -3.148438 2.515625 -2.703125 2.828125 -2.328125 C 3.148438 -1.953125 3.546875 -1.660156 4.015625 -1.453125 C 4.492188 -1.242188 5.023438 -1.140625 5.609375 -1.140625 C 6.609375 -1.140625 7.519531 -1.46875 8.34375 -2.125 Z M 2.15625 -4.890625 L 8.15625 -4.890625 C 8.09375 -5.429688 7.925781 -5.898438 7.65625 -6.296875 C 7.382812 -6.703125 7.035156 -7.019531 6.609375 -7.25 C 6.179688 -7.476562 5.703125 -7.59375 5.171875 -7.59375 C 4.628906 -7.59375 4.140625 -7.476562 3.703125 -7.25 C 3.273438 -7.019531 2.925781 -6.703125 2.65625 -6.296875 C 2.382812 -5.898438 2.21875 -5.429688 2.15625 -4.890625 Z M 2.15625 -4.890625 "/></g></g><g transform="translate(52.698183, 39.085475)"><g><path d="M 2.875 0 L 1.359375 0 L 1.359375 -13.09375 L 2.875 -13.09375 Z M 2.875 0 "/></g></g><g transform="translate(56.92081, 39.085475)"><g><path d="M 5.234375 0.171875 C 4.359375 0.171875 3.570312 -0.0234375 2.875 -0.421875 C 2.1875 -0.816406 1.644531 -1.351562 1.25 -2.03125 C 0.851562 -2.71875 0.65625 -3.492188 0.65625 -4.359375 C 0.65625 -5.222656 0.851562 -5.992188 1.25 -6.671875 C 1.644531 -7.359375 2.1875 -7.898438 2.875 -8.296875 C 3.570312 -8.703125 4.359375 -8.90625 5.234375 -8.90625 C 6.097656 -8.90625 6.875 -8.703125 7.5625 -8.296875 C 8.25 -7.898438 8.789062 -7.359375 9.1875 -6.671875 C 9.582031 -5.992188 9.78125 -5.222656 9.78125 -4.359375 C 9.78125 -3.492188 9.582031 -2.71875 9.1875 -2.03125 C 8.789062 -1.351562 8.25 -0.816406 7.5625 -0.421875 C 6.875 -0.0234375 6.097656 0.171875 5.234375 0.171875 Z M 5.21875 -1.125 C 5.800781 -1.125 6.328125 -1.265625 6.796875 -1.546875 C 7.265625 -1.828125 7.632812 -2.210938 7.90625 -2.703125 C 8.175781 -3.191406 8.3125 -3.742188 8.3125 -4.359375 C 8.3125 -4.984375 8.175781 -5.535156 7.90625 -6.015625 C 7.632812 -6.503906 7.265625 -6.890625 6.796875 -7.171875 C 6.328125 -7.460938 5.800781 -7.609375 5.21875 -7.609375 C 4.632812 -7.609375 4.109375 -7.460938 3.640625 -7.171875 C 3.171875 -6.890625 2.800781 -6.503906 2.53125 -6.015625 C 2.257812 -5.535156 2.125 -4.984375 2.125 -4.359375 C 2.125 -3.742188 2.257812 -3.191406 2.53125 -2.703125 C 2.800781 -2.210938 3.171875 -1.828125 3.640625 -1.546875 C 4.109375 -1.265625 4.632812 -1.125 5.21875 -1.125 Z M 5.21875 -1.125 "/></g></g><g transform="translate(67.346512, 39.085475)"><g><path d="M 2.78125 4.359375 L 1.359375 4.359375 L 1.359375 -8.734375 L 2.625 -8.734375 L 2.703125 -7.453125 C 3.109375 -7.898438 3.597656 -8.253906 4.171875 -8.515625 C 4.742188 -8.773438 5.375 -8.90625 6.0625 -8.90625 C 6.914062 -8.90625 7.679688 -8.707031 8.359375 -8.3125 C 9.035156 -7.914062 9.570312 -7.375 9.96875 -6.6875 C 10.363281 -6.007812 10.5625 -5.234375 10.5625 -4.359375 C 10.5625 -3.503906 10.363281 -2.734375 9.96875 -2.046875 C 9.570312 -1.359375 9.035156 -0.816406 8.359375 -0.421875 C 7.679688 -0.0234375 6.914062 0.171875 6.0625 0.171875 C 5.40625 0.171875 4.796875 0.0507812 4.234375 -0.1875 C 3.671875 -0.425781 3.1875 -0.753906 2.78125 -1.171875 Z M 5.953125 -1.140625 C 6.566406 -1.140625 7.109375 -1.273438 7.578125 -1.546875 C 8.046875 -1.828125 8.410156 -2.210938 8.671875 -2.703125 C 8.941406 -3.191406 9.078125 -3.75 9.078125 -4.375 C 9.078125 -5.007812 8.941406 -5.566406 8.671875 -6.046875 C 8.410156 -6.535156 8.046875 -6.921875 7.578125 -7.203125 C 7.109375 -7.484375 6.570312 -7.625 5.96875 -7.625 C 5.382812 -7.625 4.859375 -7.492188 4.390625 -7.234375 C 3.929688 -6.972656 3.5625 -6.617188 3.28125 -6.171875 C 3 -5.734375 2.832031 -5.226562 2.78125 -4.65625 L 2.78125 -4.0625 C 2.832031 -3.5 2.992188 -2.992188 3.265625 -2.546875 C 3.546875 -2.109375 3.914062 -1.765625 4.375 -1.515625 C 4.84375 -1.265625 5.367188 -1.140625 5.953125 -1.140625 Z M 5.953125 -1.140625 "/></g></g><g transform="translate(78.557412, 39.085475)"><g><path d="M 9 -1.078125 C 7.925781 -0.242188 6.734375 0.171875 5.421875 0.171875 C 4.515625 0.171875 3.703125 -0.03125 2.984375 -0.4375 C 2.265625 -0.84375 1.695312 -1.394531 1.28125 -2.09375 C 0.863281 -2.800781 0.65625 -3.597656 0.65625 -4.484375 C 0.65625 -5.328125 0.847656 -6.082031 1.234375 -6.75 C 1.617188 -7.414062 2.144531 -7.941406 2.8125 -8.328125 C 3.476562 -8.710938 4.238281 -8.90625 5.09375 -8.90625 C 5.957031 -8.90625 6.722656 -8.691406 7.390625 -8.265625 C 8.054688 -7.847656 8.578125 -7.265625 8.953125 -6.515625 C 9.328125 -5.773438 9.515625 -4.914062 9.515625 -3.9375 L 9.515625 -3.671875 L 2.203125 -3.671875 C 2.304688 -3.148438 2.515625 -2.703125 2.828125 -2.328125 C 3.148438 -1.953125 3.546875 -1.660156 4.015625 -1.453125 C 4.492188 -1.242188 5.023438 -1.140625 5.609375 -1.140625 C 6.609375 -1.140625 7.519531 -1.46875 8.34375 -2.125 Z M 2.15625 -4.890625 L 8.15625 -4.890625 C 8.09375 -5.429688 7.925781 -5.898438 7.65625 -6.296875 C 7.382812 -6.703125 7.035156 -7.019531 6.609375 -7.25 C 6.179688 -7.476562 5.703125 -7.59375 5.171875 -7.59375 C 4.628906 -7.59375 4.140625 -7.476562 3.703125 -7.25 C 3.273438 -7.019531 2.925781 -6.703125 2.65625 -6.296875 C 2.382812 -5.898438 2.21875 -5.429688 2.15625 -4.890625 Z M 2.15625 -4.890625 "/></g></g><g transform="translate(88.721381, 39.085475)"><g><path d="M 2.78125 0 L 1.359375 0 L 1.359375 -8.734375 L 2.609375 -8.734375 L 2.671875 -7 C 2.972656 -7.601562 3.398438 -8.070312 3.953125 -8.40625 C 4.503906 -8.738281 5.132812 -8.90625 5.84375 -8.90625 C 6 -8.90625 6.160156 -8.894531 6.328125 -8.875 C 6.492188 -8.851562 6.65625 -8.828125 6.8125 -8.796875 L 6.640625 -7.5 C 6.316406 -7.582031 6 -7.625 5.6875 -7.625 C 5.113281 -7.625 4.609375 -7.484375 4.171875 -7.203125 C 3.734375 -6.921875 3.390625 -6.535156 3.140625 -6.046875 C 2.898438 -5.554688 2.78125 -4.992188 2.78125 -4.359375 Z M 2.78125 0 "/></g></g><g transform="translate(95.666032, 39.085475)"><g><path d="M 0.734375 -0.765625 L 1.125 -2.109375 C 1.332031 -1.910156 1.566406 -1.738281 1.828125 -1.59375 C 2.097656 -1.445312 2.378906 -1.332031 2.671875 -1.25 C 2.972656 -1.175781 3.273438 -1.140625 3.578125 -1.140625 C 4.117188 -1.140625 4.554688 -1.253906 4.890625 -1.484375 C 5.222656 -1.722656 5.390625 -2.035156 5.390625 -2.421875 C 5.390625 -2.703125 5.300781 -2.929688 5.125 -3.109375 C 4.957031 -3.296875 4.734375 -3.457031 4.453125 -3.59375 C 4.171875 -3.726562 3.867188 -3.859375 3.546875 -3.984375 C 3.160156 -4.128906 2.773438 -4.296875 2.390625 -4.484375 C 2.003906 -4.679688 1.6875 -4.9375 1.4375 -5.25 C 1.1875 -5.5625 1.0625 -5.976562 1.0625 -6.5 C 1.0625 -6.988281 1.179688 -7.410156 1.421875 -7.765625 C 1.671875 -8.128906 2.015625 -8.410156 2.453125 -8.609375 C 2.890625 -8.804688 3.394531 -8.90625 3.96875 -8.90625 C 4.820312 -8.90625 5.664062 -8.6875 6.5 -8.25 L 6.078125 -6.96875 C 5.890625 -7.082031 5.671875 -7.1875 5.421875 -7.28125 C 5.179688 -7.382812 4.929688 -7.460938 4.671875 -7.515625 C 4.421875 -7.566406 4.179688 -7.59375 3.953125 -7.59375 C 3.523438 -7.59375 3.179688 -7.492188 2.921875 -7.296875 C 2.660156 -7.109375 2.53125 -6.847656 2.53125 -6.515625 C 2.53125 -6.328125 2.582031 -6.15625 2.6875 -6 C 2.800781 -5.851562 2.984375 -5.703125 3.234375 -5.546875 C 3.492188 -5.398438 3.847656 -5.234375 4.296875 -5.046875 C 4.703125 -4.878906 5.097656 -4.691406 5.484375 -4.484375 C 5.878906 -4.285156 6.203125 -4.023438 6.453125 -3.703125 C 6.710938 -3.378906 6.84375 -2.957031 6.84375 -2.4375 C 6.84375 -1.925781 6.707031 -1.472656 6.4375 -1.078125 C 6.175781 -0.679688 5.800781 -0.375 5.3125 -0.15625 C 4.832031 0.0625 4.28125 0.171875 3.65625 0.171875 C 2.613281 0.171875 1.640625 -0.140625 0.734375 -0.765625 Z M 0.734375 -0.765625 "/></g></g></g></svg>