<svg xmlns="http://www.w3.org/2000/svg" xmlns:xlink="http://www.w3.org/1999/xlink" width="150" zoomAndPan="magnify" viewBox="0 0 112.5 67.499998" height="90" preserveAspectRatio="xMidYMid meet" version="1.0"><defs><g/><clipPath id="242695011b"><path d="M 0.164062 0 L 111.839844 0 L 111.839844 67.003906 L 0.164062 67.003906 Z M 0.164062 0 " clip-rule="nonzero"/></clipPath></defs><g clip-path="url(#242695011b)"><path fill="#ffffff" d="M 0.164062 0 L 111.839844 0 L 111.839844 67.003906 L 0.164062 67.003906 Z M 0.164062 0 " fill-opacity="1" fill-rule="nonzero"/><path fill="#698dff" d="M 0.164062 0 L 111.839844 0 L 111.839844 67.003906 L 0.164062 67.003906 Z M 0.164062 0 " fill-opacity="1" fill-rule="nonzero"/></g><g fill="#ffffff" fill-opacity="1"><g transform="translate(14.761425, 39.085475)"><g><path d="M 11.265625 -10.53125 C 10.785156 -11 10.21875 -11.359375 9.5625 -11.609375 C 8.914062 -11.867188 8.226562 -12 7.5 -12 C 6.738281 -12 6.039062 -11.863281 5.40625 -11.59375 C 4.769531 -11.332031 4.222656 -10.957031 3.765625 -10.46875 C 3.304688 -9.976562 2.945312 -9.398438 2.6875 -8.734375 C 2.4375 -8.078125 2.3125 -7.351562 2.3125 -6.5625 C 2.3125 -5.769531 2.4375 -5.039062 2.6875 -4.375 C 2.9375 -3.707031 3.285156 -3.128906 3.734375 -2.640625 C 4.191406 -2.148438 4.734375 -1.769531 5.359375 -1.5 C 5.984375 -1.226562 6.664062 -1.09375 7.40625 -1.09375 C 8.09375 -1.09375 8.722656 -1.207031 9.296875 -1.4375 C 9.878906 -1.675781 10.390625 -2.003906 10.828125 -2.421875 C 11.273438 -2.847656 11.632812 -3.351562 11.90625 -3.9375 C 12.175781 -4.519531 12.34375 -5.160156 12.40625 -5.859375 L 7.609375 -5.859375 L 7.609375 -7.078125 L 13.765625 -7.078125 L 13.8125 -6.515625 C 13.8125 -5.515625 13.65625 -4.601562 13.34375 -3.78125 C 13.03125 -2.957031 12.585938 -2.238281 12.015625 -1.625 C 11.441406 -1.019531 10.765625 -0.550781 9.984375 -0.21875 C 9.210938 0.101562 8.359375 0.265625 7.421875 0.265625 C 6.460938 0.265625 5.578125 0.09375 4.765625 -0.25 C 3.953125 -0.59375 3.242188 -1.066406 2.640625 -1.671875 C 2.035156 -2.285156 1.566406 -3.003906 1.234375 -3.828125 C 0.898438 -4.648438 0.734375 -5.546875 0.734375 -6.515625 C 0.734375 -7.492188 0.898438 -8.398438 1.234375 -9.234375 C 1.578125 -10.066406 2.050781 -10.789062 2.65625 -11.40625 C 3.257812 -12.019531 3.972656 -12.5 4.796875 -12.84375 C 5.617188 -13.1875 6.515625 -13.359375 7.484375 -13.359375 C 8.390625 -13.359375 9.253906 -13.195312 10.078125 -12.875 C 10.898438 -12.5625 11.632812 -12.113281 12.28125 -11.53125 Z M 11.265625 -10.53125 "/></g></g><g transform="translate(29.30506, 39.085475)"><g><path d="M 8.390625 0 L 7.171875 0 L 7.0625 -1.15625 C 6.75 -0.738281 6.34375 -0.410156 5.84375 -0.171875 C 5.351562 0.0546875 4.800781 0.171875 4.1875 0.171875 C 3.5625 0.171875 3 0.0507812 2.5 -0.1875 C 2.007812 -0.4375 1.625 -0.773438 1.34375 -1.203125 C 1.0625 -1.640625 0.921875 -2.128906 0.921875 -2.671875 C 0.921875 -3.253906 1.070312 -3.765625 1.375 -4.203125 C 1.675781 -4.640625 2.085938 -4.984375 2.609375 -5.234375 C 3.140625 -5.484375 3.742188 -5.609375 4.421875 -5.609375 C 4.859375 -5.609375 5.300781 -5.554688 5.75 -5.453125 C 6.207031 -5.347656 6.613281 -5.203125 6.96875 -5.015625 L 6.96875 -5.375 C 6.96875 -5.84375 6.847656 -6.238281 6.609375 -6.5625 C 6.378906 -6.894531 6.066406 -7.148438 5.671875 -7.328125 C 5.285156 -7.503906 4.859375 -7.59375 4.390625 -7.59375 C 3.984375 -7.59375 3.566406 -7.515625 3.140625 -7.359375 C 2.710938 -7.210938 2.304688 -6.988281 1.921875 -6.6875 L 1.453125 -7.921875 C 1.953125 -8.242188 2.484375 -8.488281 3.046875 -8.65625 C 3.609375 -8.820312 4.160156 -8.90625 4.703125 -8.90625 C 5.460938 -8.90625 6.113281 -8.75 6.65625 -8.4375 C 7.207031 -8.132812 7.632812 -7.703125 7.9375 -7.140625 C 8.238281 -6.578125 8.390625 -5.914062 8.390625 -5.15625 Z M 4.4375 -1.140625 C 4.882812 -1.140625 5.296875 -1.226562 5.671875 -1.40625 C 6.046875 -1.59375 6.347656 -1.863281 6.578125 -2.21875 C 6.816406 -2.570312 6.945312 -2.988281 6.96875 -3.46875 L 6.96875 -3.625 C 6.644531 -3.875 6.285156 -4.066406 5.890625 -4.203125 C 5.492188 -4.335938 5.085938 -4.40625 4.671875 -4.40625 C 4.023438 -4.40625 3.484375 -4.25 3.046875 -3.9375 C 2.617188 -3.625 2.40625 -3.222656 2.40625 -2.734375 C 2.40625 -2.429688 2.492188 -2.15625 2.671875 -1.90625 C 2.847656 -1.664062 3.085938 -1.476562 3.390625 -1.34375 C 3.703125 -1.207031 4.050781 -1.140625 4.4375 -1.140625 Z M 4.4375 -1.140625 "/></g></g><g transform="translate(38.875767, 39.085475)"><g><path d="M 6.421875 -0.203125 C 5.835938 0.046875 5.273438 0.171875 4.734375 0.171875 C 4.203125 0.171875 3.738281 0.0546875 3.34375 -0.171875 C 2.957031 -0.398438 2.648438 -0.722656 2.421875 -1.140625 C 2.203125 -1.554688 2.09375 -2.039062 2.09375 -2.59375 L 2.09375 -7.4375 L 0.5625 -7.4375 L 0.5625 -8.734375 L 2.171875 -8.734375 L 2.171875 -10.90625 L 3.53125 -10.90625 L 3.53125 -8.734375 L 6.140625 -8.734375 L 6.140625 -7.4375 L 3.53125 -7.4375 L 3.53125 -2.859375 C 3.53125 -2.328125 3.671875 -1.898438 3.953125 -1.578125 C 4.234375 -1.265625 4.601562 -1.109375 5.0625 -1.109375 C 5.4375 -1.109375 5.804688 -1.21875 6.171875 -1.4375 Z M 6.421875 -0.203125 "/></g></g><g transform="translate(45.855316, 39.085475)"><g><path d="M 9 -1.078125 C 7.925781 -0.242188 6.734375 0.171875 5.421875 0.171875 C 4.515625 0.171875 3.703125 -0.03125 2.984375 -0.4375 C 2.265625 -0.84375 1.695312 -1.394531 1.28125 -2.09375 C 0.863281 -2.800781 0.65625 -3.597656 0.65625 -4.484375 C 0.65625 -5.328125 0.847656 -6.082031 1.234375 -6.75 C 1.617188 -7.414062 2.144531 -7.941406 2.8125 -8.328125 C 3.476562 -8.710938 4.238281 -8.90625 5.09375 -8.90625 C 5.957031 -8.90625 6.722656 -8.691406 7.390625 -8.265625 C 8.054688 -7.847656 8.578125 -7.265625 8.953125 -6.515625 C 9.328125 -5.773438 9.515625 -4.914062 9.515625 -3.9375 L 9.515625 -3.671875 L 2.203125 -3.671875 C 2.304688 -3.148438 2.515625 -2.703125 2.828125 -2.328125 C 3.148438 -1.953125 3.546875 -1.660156 4.015625 -1.453125 C 4.492188 -1.242188 5.023438 -1.140625 5.609375 -1.140625 C 6.609375 -1.140625 7.519531 -1.46875 8.34375 -2.125 Z M 2.15625 -4.890625 L 8.15625 -4.890625 C 8.09375 -5.429688 7.925781 -5.898438 7.65625 -6.296875 C 7.382812 -6.703125 7.035156 -7.019531 6.609375 -7.25 C 6.179688 -7.476562 5.703125 -7.59375 5.171875 -7.59375 C 4.628906 -7.59375 4.140625 -7.476562 3.703125 -7.25 C 3.273438 -7.019531 2.925781 -6.703125 2.65625 -6.296875 C 2.382812 -5.898438 2.21875 -5.429688 2.15625 -4.890625 Z M 2.15625 -4.890625 "/></g></g><g transform="translate(56.019285, 39.085475)"><g><path d="M 10.53125 0 L 8.875 0 L 6.890625 -6.671875 L 4.921875 0 L 3.265625 0 L 0.484375 -8.734375 L 2 -8.734375 L 4.078125 -1.75 L 6.21875 -8.734375 L 7.5625 -8.734375 L 9.703125 -1.75 L 11.796875 -8.734375 L 13.3125 -8.734375 Z M 10.53125 0 "/></g></g><g transform="translate(69.812619, 39.085475)"><g><path d="M 8.390625 0 L 7.171875 0 L 7.0625 -1.15625 C 6.75 -0.738281 6.34375 -0.410156 5.84375 -0.171875 C 5.351562 0.0546875 4.800781 0.171875 4.1875 0.171875 C 3.5625 0.171875 3 0.0507812 2.5 -0.1875 C 2.007812 -0.4375 1.625 -0.773438 1.34375 -1.203125 C 1.0625 -1.640625 0.921875 -2.128906 0.921875 -2.671875 C 0.921875 -3.253906 1.070312 -3.765625 1.375 -4.203125 C 1.675781 -4.640625 2.085938 -4.984375 2.609375 -5.234375 C 3.140625 -5.484375 3.742188 -5.609375 4.421875 -5.609375 C 4.859375 -5.609375 5.300781 -5.554688 5.75 -5.453125 C 6.207031 -5.347656 6.613281 -5.203125 6.96875 -5.015625 L 6.96875 -5.375 C 6.96875 -5.84375 6.847656 -6.238281 6.609375 -6.5625 C 6.378906 -6.894531 6.066406 -7.148438 5.671875 -7.328125 C 5.285156 -7.503906 4.859375 -7.59375 4.390625 -7.59375 C 3.984375 -7.59375 3.566406 -7.515625 3.140625 -7.359375 C 2.710938 -7.210938 2.304688 -6.988281 1.921875 -6.6875 L 1.453125 -7.921875 C 1.953125 -8.242188 2.484375 -8.488281 3.046875 -8.65625 C 3.609375 -8.820312 4.160156 -8.90625 4.703125 -8.90625 C 5.460938 -8.90625 6.113281 -8.75 6.65625 -8.4375 C 7.207031 -8.132812 7.632812 -7.703125 7.9375 -7.140625 C 8.238281 -6.578125 8.390625 -5.914062 8.390625 -5.15625 Z M 4.4375 -1.140625 C 4.882812 -1.140625 5.296875 -1.226562 5.671875 -1.40625 C 6.046875 -1.59375 6.347656 -1.863281 6.578125 -2.21875 C 6.816406 -2.570312 6.945312 -2.988281 6.96875 -3.46875 L 6.96875 -3.625 C 6.644531 -3.875 6.285156 -4.066406 5.890625 -4.203125 C 5.492188 -4.335938 5.085938 -4.40625 4.671875 -4.40625 C 4.023438 -4.40625 3.484375 -4.25 3.046875 -3.9375 C 2.617188 -3.625 2.40625 -3.222656 2.40625 -2.734375 C 2.40625 -2.429688 2.492188 -2.15625 2.671875 -1.90625 C 2.847656 -1.664062 3.085938 -1.476562 3.390625 -1.34375 C 3.703125 -1.207031 4.050781 -1.140625 4.4375 -1.140625 Z M 4.4375 -1.140625 "/></g></g><g transform="translate(79.383326, 39.085475)"><g><path d="M 4.375 4.359375 L 2.8125 4.359375 L 4.65625 -0.0625 L 0.484375 -8.734375 L 2.0625 -8.734375 L 5.34375 -1.71875 L 8.234375 -8.734375 L 9.796875 -8.734375 Z M 4.375 4.359375 "/></g></g><g transform="translate(89.651987, 39.085475)"><g><path d="M 0.734375 -0.765625 L 1.125 -2.109375 C 1.332031 -1.910156 1.566406 -1.738281 1.828125 -1.59375 C 2.097656 -1.445312 2.378906 -1.332031 2.671875 -1.25 C 2.972656 -1.175781 3.273438 -1.140625 3.578125 -1.140625 C 4.117188 -1.140625 4.554688 -1.253906 4.890625 -1.484375 C 5.222656 -1.722656 5.390625 -2.035156 5.390625 -2.421875 C 5.390625 -2.703125 5.300781 -2.929688 5.125 -3.109375 C 4.957031 -3.296875 4.734375 -3.457031 4.453125 -3.59375 C 4.171875 -3.726562 3.867188 -3.859375 3.546875 -3.984375 C 3.160156 -4.128906 2.773438 -4.296875 2.390625 -4.484375 C 2.003906 -4.679688 1.6875 -4.9375 1.4375 -5.25 C 1.1875 -5.5625 1.0625 -5.976562 1.0625 -6.5 C 1.0625 -6.988281 1.179688 -7.410156 1.421875 -7.765625 C 1.671875 -8.128906 2.015625 -8.410156 2.453125 -8.609375 C 2.890625 -8.804688 3.394531 -8.90625 3.96875 -8.90625 C 4.820312 -8.90625 5.664062 -8.6875 6.5 -8.25 L 6.078125 -6.96875 C 5.890625 -7.082031 5.671875 -7.1875 5.421875 -7.28125 C 5.179688 -7.382812 4.929688 -7.460938 4.671875 -7.515625 C 4.421875 -7.566406 4.179688 -7.59375 3.953125 -7.59375 C 3.523438 -7.59375 3.179688 -7.492188 2.921875 -7.296875 C 2.660156 -7.109375 2.53125 -6.847656 2.53125 -6.515625 C 2.53125 -6.328125 2.582031 -6.15625 2.6875 -6 C 2.800781 -5.851562 2.984375 -5.703125 3.234375 -5.546875 C 3.492188 -5.398438 3.847656 -5.234375 4.296875 -5.046875 C 4.703125 -4.878906 5.097656 -4.691406 5.484375 -4.484375 C 5.878906 -4.285156 6.203125 -4.023438 6.453125 -3.703125 C 6.710938 -3.378906 6.84375 -2.957031 6.84375 -2.4375 C 6.84375 -1.925781 6.707031 -1.472656 6.4375 -1.078125 C 6.175781 -0.679688 5.800781 -0.375 5.3125 -0.15625 C 4.832031 0.0625 4.28125 0.171875 3.65625 0.171875 C 2.613281 0.171875 1.640625 -0.140625 0.734375 -0.765625 Z M 0.734375 -0.765625 "/></g></g></g></svg>