<svg xmlns="http://www.w3.org/2000/svg" xmlns:xlink="http://www.w3.org/1999/xlink" width="150" zoomAndPan="magnify" viewBox="0 0 112.5 67.499998" height="90" preserveAspectRatio="xMidYMid meet" version="1.0"><defs><g/><clipPath id="942c71ab5b"><path d="M 0.164062 0 L 111.839844 0 L 111.839844 67.003906 L 0.164062 67.003906 Z M 0.164062 0 " clip-rule="nonzero"/></clipPath></defs><g clip-path="url(#942c71ab5b)"><path fill="#ffffff" d="M 0.164062 0 L 111.839844 0 L 111.839844 67.003906 L 0.164062 67.003906 Z M 0.164062 0 " fill-opacity="1" fill-rule="nonzero"/><path fill="#698dff" d="M 0.164062 0 L 111.839844 0 L 111.839844 67.003906 L 0.164062 67.003906 Z M 0.164062 0 " fill-opacity="1" fill-rule="nonzero"/></g><g fill="#ffffff" fill-opacity="1"><g transform="translate(33.044935, 26.801469)"><g><path d="M 12.75 0 L 11.125 0 L 2.890625 -10.6875 L 2.890625 0 L 1.359375 0 L 1.359375 -13.09375 L 2.96875 -13.09375 L 11.203125 -2.40625 L 11.203125 -13.09375 L 12.75 -13.09375 Z M 12.75 0 "/></g></g><g transform="translate(47.1349, 26.801469)"><g><path d="M 5.234375 0.171875 C 4.359375 0.171875 3.570312 -0.0234375 2.875 -0.421875 C 2.1875 -0.816406 1.644531 -1.351562 1.25 -2.03125 C 0.851562 -2.71875 0.65625 -3.492188 0.65625 -4.359375 C 0.65625 -5.222656 0.851562 -5.992188 1.25 -6.671875 C 1.644531 -7.359375 2.1875 -7.898438 2.875 -8.296875 C 3.570312 -8.703125 4.359375 -8.90625 5.234375 -8.90625 C 6.097656 -8.90625 6.875 -8.703125 7.5625 -8.296875 C 8.25 -7.898438 8.789062 -7.359375 9.1875 -6.671875 C 9.582031 -5.992188 9.78125 -5.222656 9.78125 -4.359375 C 9.78125 -3.492188 9.582031 -2.71875 9.1875 -2.03125 C 8.789062 -1.351562 8.25 -0.816406 7.5625 -0.421875 C 6.875 -0.0234375 6.097656 0.171875 5.234375 0.171875 Z M 5.21875 -1.125 C 5.800781 -1.125 6.328125 -1.265625 6.796875 -1.546875 C 7.265625 -1.828125 7.632812 -2.210938 7.90625 -2.703125 C 8.175781 -3.191406 8.3125 -3.742188 8.3125 -4.359375 C 8.3125 -4.984375 8.175781 -5.535156 7.90625 -6.015625 C 7.632812 -6.503906 7.265625 -6.890625 6.796875 -7.171875 C 6.328125 -7.460938 5.800781 -7.609375 5.21875 -7.609375 C 4.632812 -7.609375 4.109375 -7.460938 3.640625 -7.171875 C 3.171875 -6.890625 2.800781 -6.503906 2.53125 -6.015625 C 2.257812 -5.535156 2.125 -4.984375 2.125 -4.359375 C 2.125 -3.742188 2.257812 -3.191406 2.53125 -2.703125 C 2.800781 -2.210938 3.171875 -1.828125 3.640625 -1.546875 C 4.109375 -1.265625 4.632812 -1.125 5.21875 -1.125 Z M 5.21875 -1.125 "/></g></g><g transform="translate(57.560602, 26.801469)"><g><path d="M 9.875 0 L 8.59375 0 L 8.515625 -1.28125 C 8.117188 -0.832031 7.628906 -0.476562 7.046875 -0.21875 C 6.472656 0.0390625 5.84375 0.171875 5.15625 0.171875 C 4.300781 0.171875 3.53125 -0.0234375 2.84375 -0.421875 C 2.164062 -0.816406 1.628906 -1.359375 1.234375 -2.046875 C 0.847656 -2.734375 0.65625 -3.503906 0.65625 -4.359375 C 0.65625 -5.234375 0.847656 -6.007812 1.234375 -6.6875 C 1.628906 -7.375 2.164062 -7.914062 2.84375 -8.3125 C 3.53125 -8.707031 4.300781 -8.90625 5.15625 -8.90625 C 5.820312 -8.90625 6.4375 -8.785156 7 -8.546875 C 7.5625 -8.304688 8.039062 -7.972656 8.4375 -7.546875 L 8.4375 -13.09375 L 9.875 -13.09375 Z M 5.296875 -1.125 C 5.867188 -1.125 6.394531 -1.253906 6.875 -1.515625 C 7.351562 -1.785156 7.734375 -2.15625 8.015625 -2.625 C 8.296875 -3.09375 8.4375 -3.625 8.4375 -4.21875 L 8.4375 -4.515625 C 8.4375 -5.109375 8.296875 -5.640625 8.015625 -6.109375 C 7.734375 -6.578125 7.351562 -6.945312 6.875 -7.21875 C 6.394531 -7.488281 5.867188 -7.625 5.296875 -7.625 C 4.679688 -7.625 4.132812 -7.476562 3.65625 -7.1875 C 3.1875 -6.90625 2.8125 -6.519531 2.53125 -6.03125 C 2.257812 -5.539062 2.125 -4.988281 2.125 -4.375 C 2.125 -3.757812 2.257812 -3.203125 2.53125 -2.703125 C 2.8125 -2.210938 3.1875 -1.828125 3.65625 -1.546875 C 4.132812 -1.265625 4.679688 -1.125 5.296875 -1.125 Z M 5.296875 -1.125 "/></g></g><g transform="translate(68.780227, 26.801469)"><g><path d="M 9 -1.078125 C 7.925781 -0.242188 6.734375 0.171875 5.421875 0.171875 C 4.515625 0.171875 3.703125 -0.03125 2.984375 -0.4375 C 2.265625 -0.84375 1.695312 -1.394531 1.28125 -2.09375 C 0.863281 -2.800781 0.65625 -3.597656 0.65625 -4.484375 C 0.65625 -5.328125 0.847656 -6.082031 1.234375 -6.75 C 1.617188 -7.414062 2.144531 -7.941406 2.8125 -8.328125 C 3.476562 -8.710938 4.238281 -8.90625 5.09375 -8.90625 C 5.957031 -8.90625 6.722656 -8.691406 7.390625 -8.265625 C 8.054688 -7.847656 8.578125 -7.265625 8.953125 -6.515625 C 9.328125 -5.773438 9.515625 -4.914062 9.515625 -3.9375 L 9.515625 -3.671875 L 2.203125 -3.671875 C 2.304688 -3.148438 2.515625 -2.703125 2.828125 -2.328125 C 3.148438 -1.953125 3.546875 -1.660156 4.015625 -1.453125 C 4.492188 -1.242188 5.023438 -1.140625 5.609375 -1.140625 C 6.609375 -1.140625 7.519531 -1.46875 8.34375 -2.125 Z M 2.15625 -4.890625 L 8.15625 -4.890625 C 8.09375 -5.429688 7.925781 -5.898438 7.65625 -6.296875 C 7.382812 -6.703125 7.035156 -7.019531 6.609375 -7.25 C 6.179688 -7.476562 5.703125 -7.59375 5.171875 -7.59375 C 4.628906 -7.59375 4.140625 -7.476562 3.703125 -7.25 C 3.273438 -7.019531 2.925781 -6.703125 2.65625 -6.296875 C 2.382812 -5.898438 2.21875 -5.429688 2.15625 -4.890625 Z M 2.15625 -4.890625 "/></g></g></g><g fill="#ffffff" fill-opacity="1"><g transform="translate(11.361803, 51.369482)"><g><path d="M 7.546875 0.265625 C 6.566406 0.265625 5.660156 0.0976562 4.828125 -0.234375 C 4.003906 -0.578125 3.285156 -1.054688 2.671875 -1.671875 C 2.054688 -2.285156 1.578125 -3.003906 1.234375 -3.828125 C 0.898438 -4.660156 0.734375 -5.566406 0.734375 -6.546875 C 0.734375 -7.523438 0.898438 -8.429688 1.234375 -9.265625 C 1.578125 -10.097656 2.054688 -10.816406 2.671875 -11.421875 C 3.285156 -12.035156 4.003906 -12.507812 4.828125 -12.84375 C 5.660156 -13.1875 6.566406 -13.359375 7.546875 -13.359375 C 8.535156 -13.359375 9.441406 -13.1875 10.265625 -12.84375 C 11.085938 -12.507812 11.804688 -12.035156 12.421875 -11.421875 C 13.035156 -10.816406 13.507812 -10.097656 13.84375 -9.265625 C 14.175781 -8.429688 14.34375 -7.523438 14.34375 -6.546875 C 14.34375 -5.566406 14.175781 -4.660156 13.84375 -3.828125 C 13.507812 -3.003906 13.035156 -2.285156 12.421875 -1.671875 C 11.804688 -1.054688 11.085938 -0.578125 10.265625 -0.234375 C 9.441406 0.0976562 8.535156 0.265625 7.546875 0.265625 Z M 7.546875 -1.09375 C 8.296875 -1.09375 8.988281 -1.226562 9.625 -1.5 C 10.269531 -1.78125 10.828125 -2.164062 11.296875 -2.65625 C 11.765625 -3.144531 12.128906 -3.71875 12.390625 -4.375 C 12.648438 -5.039062 12.78125 -5.765625 12.78125 -6.546875 C 12.78125 -7.328125 12.648438 -8.046875 12.390625 -8.703125 C 12.128906 -9.367188 11.765625 -9.945312 11.296875 -10.4375 C 10.828125 -10.9375 10.269531 -11.320312 9.625 -11.59375 C 8.988281 -11.863281 8.296875 -12 7.546875 -12 C 6.796875 -12 6.101562 -11.863281 5.46875 -11.59375 C 4.832031 -11.320312 4.273438 -10.9375 3.796875 -10.4375 C 3.328125 -9.945312 2.960938 -9.367188 2.703125 -8.703125 C 2.441406 -8.046875 2.3125 -7.328125 2.3125 -6.546875 C 2.3125 -5.765625 2.441406 -5.039062 2.703125 -4.375 C 2.960938 -3.71875 3.328125 -3.140625 3.796875 -2.640625 C 4.273438 -2.148438 4.832031 -1.769531 5.46875 -1.5 C 6.101562 -1.226562 6.796875 -1.09375 7.546875 -1.09375 Z M 7.546875 -1.09375 "/></g></g><g transform="translate(26.446353, 51.369482)"><g><path d="M 2.78125 4.359375 L 1.359375 4.359375 L 1.359375 -8.734375 L 2.625 -8.734375 L 2.703125 -7.453125 C 3.109375 -7.898438 3.597656 -8.253906 4.171875 -8.515625 C 4.742188 -8.773438 5.375 -8.90625 6.0625 -8.90625 C 6.914062 -8.90625 7.679688 -8.707031 8.359375 -8.3125 C 9.035156 -7.914062 9.570312 -7.375 9.96875 -6.6875 C 10.363281 -6.007812 10.5625 -5.234375 10.5625 -4.359375 C 10.5625 -3.503906 10.363281 -2.734375 9.96875 -2.046875 C 9.570312 -1.359375 9.035156 -0.816406 8.359375 -0.421875 C 7.679688 -0.0234375 6.914062 0.171875 6.0625 0.171875 C 5.40625 0.171875 4.796875 0.0507812 4.234375 -0.1875 C 3.671875 -0.425781 3.1875 -0.753906 2.78125 -1.171875 Z M 5.953125 -1.140625 C 6.566406 -1.140625 7.109375 -1.273438 7.578125 -1.546875 C 8.046875 -1.828125 8.410156 -2.210938 8.671875 -2.703125 C 8.941406 -3.191406 9.078125 -3.75 9.078125 -4.375 C 9.078125 -5.007812 8.941406 -5.566406 8.671875 -6.046875 C 8.410156 -6.535156 8.046875 -6.921875 7.578125 -7.203125 C 7.109375 -7.484375 6.570312 -7.625 5.96875 -7.625 C 5.382812 -7.625 4.859375 -7.492188 4.390625 -7.234375 C 3.929688 -6.972656 3.5625 -6.617188 3.28125 -6.171875 C 3 -5.734375 2.832031 -5.226562 2.78125 -4.65625 L 2.78125 -4.0625 C 2.832031 -3.5 2.992188 -2.992188 3.265625 -2.546875 C 3.546875 -2.109375 3.914062 -1.765625 4.375 -1.515625 C 4.84375 -1.265625 5.367188 -1.140625 5.953125 -1.140625 Z M 5.953125 -1.140625 "/></g></g><g transform="translate(37.657254, 51.369482)"><g><path d="M 9 -1.078125 C 7.925781 -0.242188 6.734375 0.171875 5.421875 0.171875 C 4.515625 0.171875 3.703125 -0.03125 2.984375 -0.4375 C 2.265625 -0.84375 1.695312 -1.394531 1.28125 -2.09375 C 0.863281 -2.800781 0.65625 -3.597656 0.65625 -4.484375 C 0.65625 -5.328125 0.847656 -6.082031 1.234375 -6.75 C 1.617188 -7.414062 2.144531 -7.941406 2.8125 -8.328125 C 3.476562 -8.710938 4.238281 -8.90625 5.09375 -8.90625 C 5.957031 -8.90625 6.722656 -8.691406 7.390625 -8.265625 C 8.054688 -7.847656 8.578125 -7.265625 8.953125 -6.515625 C 9.328125 -5.773438 9.515625 -4.914062 9.515625 -3.9375 L 9.515625 -3.671875 L 2.203125 -3.671875 C 2.304688 -3.148438 2.515625 -2.703125 2.828125 -2.328125 C 3.148438 -1.953125 3.546875 -1.660156 4.015625 -1.453125 C 4.492188 -1.242188 5.023438 -1.140625 5.609375 -1.140625 C 6.609375 -1.140625 7.519531 -1.46875 8.34375 -2.125 Z M 2.15625 -4.890625 L 8.15625 -4.890625 C 8.09375 -5.429688 7.925781 -5.898438 7.65625 -6.296875 C 7.382812 -6.703125 7.035156 -7.019531 6.609375 -7.25 C 6.179688 -7.476562 5.703125 -7.59375 5.171875 -7.59375 C 4.628906 -7.59375 4.140625 -7.476562 3.703125 -7.25 C 3.273438 -7.019531 2.925781 -6.703125 2.65625 -6.296875 C 2.382812 -5.898438 2.21875 -5.429688 2.15625 -4.890625 Z M 2.15625 -4.890625 "/></g></g><g transform="translate(47.821223, 51.369482)"><g><path d="M 2.78125 0 L 1.359375 0 L 1.359375 -8.734375 L 2.609375 -8.734375 L 2.671875 -7 C 2.972656 -7.601562 3.398438 -8.070312 3.953125 -8.40625 C 4.503906 -8.738281 5.132812 -8.90625 5.84375 -8.90625 C 6 -8.90625 6.160156 -8.894531 6.328125 -8.875 C 6.492188 -8.851562 6.65625 -8.828125 6.8125 -8.796875 L 6.640625 -7.5 C 6.316406 -7.582031 6 -7.625 5.6875 -7.625 C 5.113281 -7.625 4.609375 -7.484375 4.171875 -7.203125 C 3.734375 -6.921875 3.390625 -6.535156 3.140625 -6.046875 C 2.898438 -5.554688 2.78125 -4.992188 2.78125 -4.359375 Z M 2.78125 0 "/></g></g><g transform="translate(54.765874, 51.369482)"><g><path d="M 8.390625 0 L 7.171875 0 L 7.0625 -1.15625 C 6.75 -0.738281 6.34375 -0.410156 5.84375 -0.171875 C 5.351562 0.0546875 4.800781 0.171875 4.1875 0.171875 C 3.5625 0.171875 3 0.0507812 2.5 -0.1875 C 2.007812 -0.4375 1.625 -0.773438 1.34375 -1.203125 C 1.0625 -1.640625 0.921875 -2.128906 0.921875 -2.671875 C 0.921875 -3.253906 1.070312 -3.765625 1.375 -4.203125 C 1.675781 -4.640625 2.085938 -4.984375 2.609375 -5.234375 C 3.140625 -5.484375 3.742188 -5.609375 4.421875 -5.609375 C 4.859375 -5.609375 5.300781 -5.554688 5.75 -5.453125 C 6.207031 -5.347656 6.613281 -5.203125 6.96875 -5.015625 L 6.96875 -5.375 C 6.96875 -5.84375 6.847656 -6.238281 6.609375 -6.5625 C 6.378906 -6.894531 6.066406 -7.148438 5.671875 -7.328125 C 5.285156 -7.503906 4.859375 -7.59375 4.390625 -7.59375 C 3.984375 -7.59375 3.566406 -7.515625 3.140625 -7.359375 C 2.710938 -7.210938 2.304688 -6.988281 1.921875 -6.6875 L 1.453125 -7.921875 C 1.953125 -8.242188 2.484375 -8.488281 3.046875 -8.65625 C 3.609375 -8.820312 4.160156 -8.90625 4.703125 -8.90625 C 5.460938 -8.90625 6.113281 -8.75 6.65625 -8.4375 C 7.207031 -8.132812 7.632812 -7.703125 7.9375 -7.140625 C 8.238281 -6.578125 8.390625 -5.914062 8.390625 -5.15625 Z M 4.4375 -1.140625 C 4.882812 -1.140625 5.296875 -1.226562 5.671875 -1.40625 C 6.046875 -1.59375 6.347656 -1.863281 6.578125 -2.21875 C 6.816406 -2.570312 6.945312 -2.988281 6.96875 -3.46875 L 6.96875 -3.625 C 6.644531 -3.875 6.285156 -4.066406 5.890625 -4.203125 C 5.492188 -4.335938 5.085938 -4.40625 4.671875 -4.40625 C 4.023438 -4.40625 3.484375 -4.25 3.046875 -3.9375 C 2.617188 -3.625 2.40625 -3.222656 2.40625 -2.734375 C 2.40625 -2.429688 2.492188 -2.15625 2.671875 -1.90625 C 2.847656 -1.664062 3.085938 -1.476562 3.390625 -1.34375 C 3.703125 -1.207031 4.050781 -1.140625 4.4375 -1.140625 Z M 4.4375 -1.140625 "/></g></g><g transform="translate(64.336581, 51.369482)"><g><path d="M 6.421875 -0.203125 C 5.835938 0.046875 5.273438 0.171875 4.734375 0.171875 C 4.203125 0.171875 3.738281 0.0546875 3.34375 -0.171875 C 2.957031 -0.398438 2.648438 -0.722656 2.421875 -1.140625 C 2.203125 -1.554688 2.09375 -2.039062 2.09375 -2.59375 L 2.09375 -7.4375 L 0.5625 -7.4375 L 0.5625 -8.734375 L 2.171875 -8.734375 L 2.171875 -10.90625 L 3.53125 -10.90625 L 3.53125 -8.734375 L 6.140625 -8.734375 L 6.140625 -7.4375 L 3.53125 -7.4375 L 3.53125 -2.859375 C 3.53125 -2.328125 3.671875 -1.898438 3.953125 -1.578125 C 4.234375 -1.265625 4.601562 -1.109375 5.0625 -1.109375 C 5.4375 -1.109375 5.804688 -1.21875 6.171875 -1.4375 Z M 6.421875 -0.203125 "/></g></g><g transform="translate(71.31613, 51.369482)"><g><path d="M 5.234375 0.171875 C 4.359375 0.171875 3.570312 -0.0234375 2.875 -0.421875 C 2.1875 -0.816406 1.644531 -1.351562 1.25 -2.03125 C 0.851562 -2.71875 0.65625 -3.492188 0.65625 -4.359375 C 0.65625 -5.222656 0.851562 -5.992188 1.25 -6.671875 C 1.644531 -7.359375 2.1875 -7.898438 2.875 -8.296875 C 3.570312 -8.703125 4.359375 -8.90625 5.234375 -8.90625 C 6.097656 -8.90625 6.875 -8.703125 7.5625 -8.296875 C 8.25 -7.898438 8.789062 -7.359375 9.1875 -6.671875 C 9.582031 -5.992188 9.78125 -5.222656 9.78125 -4.359375 C 9.78125 -3.492188 9.582031 -2.71875 9.1875 -2.03125 C 8.789062 -1.351562 8.25 -0.816406 7.5625 -0.421875 C 6.875 -0.0234375 6.097656 0.171875 5.234375 0.171875 Z M 5.21875 -1.125 C 5.800781 -1.125 6.328125 -1.265625 6.796875 -1.546875 C 7.265625 -1.828125 7.632812 -2.210938 7.90625 -2.703125 C 8.175781 -3.191406 8.3125 -3.742188 8.3125 -4.359375 C 8.3125 -4.984375 8.175781 -5.535156 7.90625 -6.015625 C 7.632812 -6.503906 7.265625 -6.890625 6.796875 -7.171875 C 6.328125 -7.460938 5.800781 -7.609375 5.21875 -7.609375 C 4.632812 -7.609375 4.109375 -7.460938 3.640625 -7.171875 C 3.171875 -6.890625 2.800781 -6.503906 2.53125 -6.015625 C 2.257812 -5.535156 2.125 -4.984375 2.125 -4.359375 C 2.125 -3.742188 2.257812 -3.191406 2.53125 -2.703125 C 2.800781 -2.210938 3.171875 -1.828125 3.640625 -1.546875 C 4.109375 -1.265625 4.632812 -1.125 5.21875 -1.125 Z M 5.21875 -1.125 "/></g></g><g transform="translate(81.741832, 51.369482)"><g><path d="M 2.78125 0 L 1.359375 0 L 1.359375 -8.734375 L 2.609375 -8.734375 L 2.671875 -7 C 2.972656 -7.601562 3.398438 -8.070312 3.953125 -8.40625 C 4.503906 -8.738281 5.132812 -8.90625 5.84375 -8.90625 C 6 -8.90625 6.160156 -8.894531 6.328125 -8.875 C 6.492188 -8.851562 6.65625 -8.828125 6.8125 -8.796875 L 6.640625 -7.5 C 6.316406 -7.582031 6 -7.625 5.6875 -7.625 C 5.113281 -7.625 4.609375 -7.484375 4.171875 -7.203125 C 3.734375 -6.921875 3.390625 -6.535156 3.140625 -6.046875 C 2.898438 -5.554688 2.78125 -4.992188 2.78125 -4.359375 Z M 2.78125 0 "/></g></g><g transform="translate(88.686483, 51.369482)"><g><path d="M 0.734375 -0.765625 L 1.125 -2.109375 C 1.332031 -1.910156 1.566406 -1.738281 1.828125 -1.59375 C 2.097656 -1.445312 2.378906 -1.332031 2.671875 -1.25 C 2.972656 -1.175781 3.273438 -1.140625 3.578125 -1.140625 C 4.117188 -1.140625 4.554688 -1.253906 4.890625 -1.484375 C 5.222656 -1.722656 5.390625 -2.035156 5.390625 -2.421875 C 5.390625 -2.703125 5.300781 -2.929688 5.125 -3.109375 C 4.957031 -3.296875 4.734375 -3.457031 4.453125 -3.59375 C 4.171875 -3.726562 3.867188 -3.859375 3.546875 -3.984375 C 3.160156 -4.128906 2.773438 -4.296875 2.390625 -4.484375 C 2.003906 -4.679688 1.6875 -4.9375 1.4375 -5.25 C 1.1875 -5.5625 1.0625 -5.976562 1.0625 -6.5 C 1.0625 -6.988281 1.179688 -7.410156 1.421875 -7.765625 C 1.671875 -8.128906 2.015625 -8.410156 2.453125 -8.609375 C 2.890625 -8.804688 3.394531 -8.90625 3.96875 -8.90625 C 4.820312 -8.90625 5.664062 -8.6875 6.5 -8.25 L 6.078125 -6.96875 C 5.890625 -7.082031 5.671875 -7.1875 5.421875 -7.28125 C 5.179688 -7.382812 4.929688 -7.460938 4.671875 -7.515625 C 4.421875 -7.566406 4.179688 -7.59375 3.953125 -7.59375 C 3.523438 -7.59375 3.179688 -7.492188 2.921875 -7.296875 C 2.660156 -7.109375 2.53125 -6.847656 2.53125 -6.515625 C 2.53125 -6.328125 2.582031 -6.15625 2.6875 -6 C 2.800781 -5.851562 2.984375 -5.703125 3.234375 -5.546875 C 3.492188 -5.398438 3.847656 -5.234375 4.296875 -5.046875 C 4.703125 -4.878906 5.097656 -4.691406 5.484375 -4.484375 C 5.878906 -4.285156 6.203125 -4.023438 6.453125 -3.703125 C 6.710938 -3.378906 6.84375 -2.957031 6.84375 -2.4375 C 6.84375 -1.925781 6.707031 -1.472656 6.4375 -1.078125 C 6.175781 -0.679688 5.800781 -0.375 5.3125 -0.15625 C 4.832031 0.0625 4.28125 0.171875 3.65625 0.171875 C 2.613281 0.171875 1.640625 -0.140625 0.734375 -0.765625 Z M 0.734375 -0.765625 "/></g></g></g><g fill="#ffffff" fill-opacity="1"><g transform="translate(96.279651, 51.369482)"><g/></g></g></svg>