<svg width="159" height="92" viewBox="0 0 159 92" fill="none" xmlns="http://www.w3.org/2000/svg">
<g clip-path="url(#clip0_1250_3601)">
<path d="M32.04 12.43C32.04 15.49 34.52 17.98 37.59 17.98C40.66 17.98 43.14 15.5 43.14 12.43C43.14 12.43 43.14 12.42 43.14 12.41H63.66C63.66 12.41 63.66 12.42 63.66 12.43C63.66 19.28 69.24 24.86 76.09 24.86C82.94 24.86 88.52 19.28 88.52 12.43C88.52 12.43 88.52 12.42 88.52 12.41H109.04C109.04 12.41 109.04 12.42 109.04 12.43C109.04 15.49 111.52 17.98 114.59 17.98C117.66 17.98 120.14 15.5 120.14 12.43C120.14 12.43 120.14 12.42 120.14 12.41H147.55C147.55 12.41 147.55 12.42 147.55 12.43C147.55 15.49 150.03 17.98 153.1 17.98C156.17 17.98 158.65 15.5 158.65 12.43C158.65 9.36 156.17 6.88 153.1 6.88C150.39 6.88 148.13 8.83 147.65 11.41H120.05C119.57 8.83 117.32 6.88 114.6 6.88C111.88 6.88 109.63 8.83 109.15 11.41H88.48C87.96 5.03 82.61 0 76.1 0C69.59 0 64.24 5.03 63.72 11.41H43.05C42.57 8.83 40.32 6.88 37.6 6.88C34.88 6.88 32.63 8.83 32.15 11.41H0V12.41H32.05C32.05 12.41 32.05 12.42 32.05 12.43H32.04ZM87.52 12.43C87.52 18.73 82.39 23.86 76.09 23.86C69.79 23.86 64.66 18.73 64.66 12.43C64.66 12.43 64.66 12.42 64.66 12.41H70.54C70.54 12.41 70.54 12.42 70.54 12.43C70.54 15.49 73.02 17.98 76.09 17.98C79.16 17.98 81.64 15.5 81.64 12.43C81.64 12.43 81.64 12.42 81.64 12.41H87.53C87.53 12.41 87.53 12.42 87.53 12.43H87.52ZM76.09 1C82.05 1 86.95 5.58 87.47 11.41H81.54C81.06 8.83 78.81 6.88 76.09 6.88C73.37 6.88 71.12 8.83 70.64 11.41H64.71C65.23 5.58 70.13 1 76.09 1Z" fill="white"/>
<path d="M37.59 40.4199C34.53 40.4199 32.04 42.8999 32.04 45.9699C32.04 49.0399 34.52 51.5199 37.59 51.5199C40.66 51.5199 43.14 49.0399 43.14 45.9699C43.14 42.8999 40.66 40.4199 37.59 40.4199Z" fill="white"/>
<path d="M153.08 40.4199C150.19 40.4199 147.81 42.6399 147.56 45.4699H120.11C119.86 42.6399 117.48 40.4199 114.59 40.4199C111.7 40.4199 109.32 42.6399 109.07 45.4699H81.6198C81.3698 42.6399 78.9898 40.4199 76.0998 40.4199C73.2098 40.4199 70.8298 42.6399 70.5798 45.4699H70.5498V45.9699V46.4699H70.5798C70.8298 49.2999 73.2098 51.5199 76.0998 51.5199C78.9898 51.5199 81.3698 49.2999 81.6198 46.4699H109.07C109.32 49.2999 111.7 51.5199 114.59 51.5199C117.48 51.5199 119.86 49.2999 120.11 46.4699H147.56C147.81 49.2999 150.19 51.5199 153.08 51.5199C156.14 51.5199 158.63 49.0399 158.63 45.9699C158.63 42.8999 156.15 40.4199 153.08 40.4199Z" fill="white"/>
<path d="M153.08 73.9601C150.02 73.9601 147.53 76.4401 147.53 79.5101C147.53 79.5101 147.53 79.5201 147.53 79.5301H127.01C127.01 79.5301 127.01 79.5201 127.01 79.5101C127.01 72.6601 121.43 67.0801 114.58 67.0801C107.73 67.0801 102.15 72.6601 102.15 79.5101C102.15 79.5101 102.15 79.5201 102.15 79.5301H81.63C81.63 79.5301 81.63 79.5201 81.63 79.5101C81.63 76.4501 79.15 73.9601 76.08 73.9601C73.01 73.9601 70.53 76.4401 70.53 79.5101C70.53 79.5101 70.53 79.5201 70.53 79.5301H43.12C43.12 79.5301 43.12 79.5201 43.12 79.5101C43.12 76.4501 40.64 73.9601 37.57 73.9601C34.5 73.9601 32.02 76.4401 32.02 79.5101C32.02 79.5101 32.02 79.5201 32.02 79.5301H0V80.5301H32.14C32.62 83.1001 34.88 85.0501 37.59 85.0501C40.3 85.0501 42.56 83.1001 43.04 80.5301H70.64C71.12 83.1001 73.37 85.0501 76.09 85.0501C78.81 85.0501 81.06 83.1001 81.54 80.5301H102.21C102.73 86.9101 108.08 91.9401 114.59 91.9401C121.1 91.9401 126.45 86.9101 126.97 80.5301H147.64C148.12 83.1001 150.37 85.0501 153.09 85.0501C156.15 85.0501 158.64 82.5701 158.64 79.5001C158.64 76.4301 156.16 73.9501 153.09 73.9501L153.08 73.9601ZM103.15 79.5101C103.15 73.2101 108.28 68.0801 114.58 68.0801C120.88 68.0801 126.01 73.2101 126.01 79.5101C126.01 79.5101 126.01 79.5201 126.01 79.5301H120.13C120.13 79.5301 120.13 79.5201 120.13 79.5101C120.13 76.4501 117.65 73.9601 114.58 73.9601C111.51 73.9601 109.03 76.4401 109.03 79.5101C109.03 79.5101 109.03 79.5201 109.03 79.5301H103.15C103.15 79.5301 103.15 79.5201 103.15 79.5101ZM114.58 90.9401C108.62 90.9401 103.72 86.3601 103.2 80.5301H109.13C109.61 83.1001 111.86 85.0501 114.58 85.0501C117.3 85.0501 119.55 83.1001 120.03 80.5301H125.96C125.44 86.3601 120.54 90.9401 114.58 90.9401Z" fill="white"/>
</g>
<defs>
<clipPath id="clip0_1250_3601">
<rect width="158.63" height="91.94" fill="white"/>
</clipPath>
</defs>
</svg>
