<svg width="1440" height="960" viewBox="0 0 1440 960" fill="none" xmlns="http://www.w3.org/2000/svg">
<g clip-path="url(#clip0_242_1868)">
<rect width="1440" height="960" fill="#231F20"/>
<g clip-path="url(#clip1_242_1868)">
<path d="M-344.219 429.112L70.3379 668.372V1037" stroke="white" stroke-width="3" stroke-miterlimit="10"/>
<path d="M-169.655 426.352L162.276 617.925V1037" stroke="white" stroke-width="3" stroke-miterlimit="10"/>
<path d="M-8.30029 426.352L241.438 570.488V1037" stroke="white" stroke-width="3" stroke-miterlimit="10"/>
</g>
<path d="M782.327 687.806L782.327 715.786L688 674.071L688 645.962L782.327 687.676L782.327 687.806ZM784.327 717.973L878.655 676.258L878.655 704.369L784.327 746.083L784.327 718.857L784.327 717.973ZM688 706.344L782.327 748.058L782.327 776.168L688 734.453L688 706.344ZM976.982 778.354L1071.31 736.64L1071.31 764.75L976.982 806.464L976.982 779.239L976.982 778.354ZM1073.31 734.453L1073.31 733.569L1073.31 706.344L1167.64 748.058L1167.64 776.168L1073.31 734.453ZM976.982 656.624L1071.31 614.911L1071.31 642.891L1071.31 643.02L976.982 684.734L976.982 657.508L976.982 656.624ZM974.982 626.327L974.982 654.437L880.655 612.724L880.655 611.839L880.655 584.613L974.982 626.327ZM878.655 614.91L878.655 642.891L878.655 642.891L878.655 643.02L784.327 684.734L784.327 657.508L784.327 656.624L878.655 614.91ZM880.654 674.071L880.654 673.187L880.654 645.962L974.982 687.676L974.982 687.806L974.982 715.786L880.654 674.071ZM880.655 706.344L974.982 748.058L974.982 776.168L880.655 734.453L880.655 733.569L880.655 706.344ZM1071.31 704.369L976.982 746.083L976.982 718.857L976.982 717.973L1071.31 676.258L1071.31 704.369ZM1167.64 687.805L1167.64 715.786L1073.31 674.071L1073.31 673.187L1073.31 645.962L1167.64 687.676L1167.64 687.805ZM1264 643.02L1169.64 684.735L1169.64 657.508L1169.64 656.624L1264 614.91L1264 643.02ZM1167.64 626.327L1167.64 654.437L1073.31 612.724L1073.31 611.839L1073.31 584.613L1167.64 626.327ZM784.327 778.354L878.655 736.64L878.655 764.75L784.327 806.464L784.327 779.239L784.327 778.354ZM782.327 626.327L782.327 654.437L688 612.723L688 584.613L782.327 626.327ZM1264 676.259L1264 704.369L1169.64 746.084L1169.64 718.857L1169.64 717.973L1264 676.259ZM1169.64 778.355L1264 736.64L1264 764.75L1169.64 806.465L1169.64 779.239L1169.64 778.355Z" stroke="white" stroke-width="2"/>
</g>
<defs>
<clipPath id="clip0_242_1868">
<rect width="1440" height="960" fill="white"/>
</clipPath>
<clipPath id="clip1_242_1868">
<rect width="243" height="535" fill="white" transform="translate(0 425)"/>
</clipPath>
</defs>
</svg>
