<svg width="1440" height="960" viewBox="0 0 1440 960" fill="none" xmlns="http://www.w3.org/2000/svg">
<g clip-path="url(#clip0_242_1825)">
<rect width="1440" height="960" fill="#231F20"/>
<path d="M1010.69 305.45L1010.69 444.729L1131.07 514.369L1251.46 444.729L1251.46 305.45L1131.07 235.811L1010.69 305.45Z" stroke="white" stroke-width="2" stroke-miterlimit="10"/>
<path d="M1251.46 444.729L1131.07 375.285L1010.69 444.729" stroke="white" stroke-width="2" stroke-miterlimit="10"/>
<path d="M1131.07 375.285L1131.07 235.811" stroke="white" stroke-width="2" stroke-miterlimit="10"/>
<path d="M769.924 305.45L769.924 444.729L890.308 514.369L1010.69 444.729L1010.69 305.45L890.308 235.811L769.924 305.45Z" stroke="white" stroke-width="2" stroke-miterlimit="10"/>
<path d="M1010.69 444.729L890.308 375.285L769.924 444.729" stroke="white" stroke-width="2" stroke-miterlimit="10"/>
<path d="M890.308 375.285L890.308 235.811" stroke="white" stroke-width="2" stroke-miterlimit="10"/>
<path d="M529.158 305.45L529.158 444.729L649.541 514.369L769.924 444.729L769.924 305.45L649.541 235.811L529.158 305.45Z" stroke="white" stroke-width="2" stroke-miterlimit="10"/>
<path d="M769.924 444.729L649.541 375.285L529.158 444.729" stroke="white" stroke-width="2" stroke-miterlimit="10"/>
<path d="M649.541 375.285L649.541 235.811" stroke="white" stroke-width="2" stroke-miterlimit="10"/>
<path d="M1131.07 514.27L1131.07 653.55L1251.46 723.189L1371.84 653.55L1371.84 514.27L1251.46 444.631L1131.07 514.27Z" stroke="white" stroke-width="2" stroke-miterlimit="10"/>
<path d="M1371.84 653.55L1251.46 584.107L1131.07 653.55" stroke="white" stroke-width="2" stroke-miterlimit="10"/>
<path d="M1251.46 584.107L1251.46 444.631" stroke="white" stroke-width="2" stroke-miterlimit="10"/>
<path d="M890.308 514.27L890.308 653.55L1010.69 723.189L1131.07 653.55L1131.07 514.27L1010.69 444.631L890.308 514.27Z" stroke="white" stroke-width="2" stroke-miterlimit="10"/>
<path d="M1131.07 653.55L1010.69 584.107L890.308 653.55" stroke="white" stroke-width="2" stroke-miterlimit="10"/>
<path d="M1010.69 584.107L1010.69 444.631" stroke="white" stroke-width="2" stroke-miterlimit="10"/>
<path d="M73.0503 986.001L48 961.01L104.083 905.063L53.8962 854.99L78.9458 829.999L154.19 905.063L73.0503 986.001Z" fill="white"/>
<path d="M157.811 986.001L132.76 961.01L188.843 905.063L138.656 854.99L163.706 829.999L238.95 905.063L157.811 986.001Z" fill="white"/>
<path d="M242.57 986.001L217.52 961.01L273.602 905.063L223.416 854.99L248.466 829.999L323.709 905.063L242.57 986.001Z" fill="white"/>
<path d="M327.33 986.001L302.281 961.01L358.363 905.063L308.176 854.99L333.226 829.999L408.47 905.063L327.33 986.001Z" stroke="white" stroke-width="2" stroke-miterlimit="10"/>
<path d="M412.091 986.001L387.04 961.01L443.123 905.063L392.936 854.99L417.986 829.999L493.23 905.063L412.091 986.001Z" stroke="white" stroke-width="2" stroke-miterlimit="10"/>
<path d="M496.85 986.001L471.8 961.01L527.882 905.063L477.696 854.99L502.746 829.999L577.989 905.063L496.85 986.001Z" stroke="white" stroke-width="2" stroke-miterlimit="10"/>
</g>
<defs>
<clipPath id="clip0_242_1825">
<rect width="1440" height="960" fill="white"/>
</clipPath>
</defs>
</svg>
