<svg width="1440" height="960" viewBox="0 0 1440 960" fill="none" xmlns="http://www.w3.org/2000/svg">
<g clip-path="url(#clip0_242_1932)">
<rect width="1440" height="960" fill="#231F20"/>
<path d="M776.014 584.422C783.032 584.422 788.721 578.731 788.721 571.711C788.721 564.691 783.032 559 776.014 559C768.996 559 763.308 564.691 763.308 571.711C763.308 578.731 768.996 584.422 776.014 584.422Z" fill="white"/>
<path d="M839.132 584.422C846.149 584.422 851.838 578.731 851.838 571.711C851.838 564.691 846.149 559 839.132 559C832.114 559 826.425 564.691 826.425 571.711C826.425 578.731 832.114 584.422 839.132 584.422Z" fill="white"/>
<path d="M902.249 584.422C909.267 584.422 914.956 578.731 914.956 571.711C914.956 564.691 909.267 559 902.249 559C895.231 559 889.543 564.691 889.543 571.711C889.543 578.731 895.231 584.422 902.249 584.422Z" fill="white"/>
<path d="M1091.6 584.422C1098.62 584.422 1104.31 578.731 1104.31 571.711C1104.31 564.691 1098.62 559 1091.6 559C1084.58 559 1078.9 564.691 1078.9 571.711C1078.9 578.731 1084.58 584.422 1091.6 584.422Z" fill="white"/>
<path d="M797.434 688.289H756.047V693.373H797.434V688.289Z" fill="white"/>
<path d="M862.055 688.289H820.668V693.373H862.055V688.289Z" fill="white"/>
<path d="M991.299 688.289H949.912V693.373H991.299V688.289Z" fill="white"/>
<path d="M1055.92 688.289H1014.53V693.373H1055.92V688.289Z" fill="white"/>
<path d="M1241.93 688.289H1200.54V693.373H1241.93V688.289Z" fill="white"/>
<path d="M991.299 763.102H949.912V768.187H991.299V763.102Z" fill="white"/>
<path d="M1055.92 763.102H1014.53V768.187H1055.92V763.102Z" fill="white"/>
<path d="M1185.16 763.102H1143.78V768.187H1185.16V763.102Z" fill="white"/>
<path d="M1241.93 763.102H1200.54V768.187H1241.93V763.102Z" fill="white"/>
<path d="M797.434 837.916H756.047V843H797.434V837.916Z" fill="white"/>
<path d="M862.055 837.916H820.668V843H862.055V837.916Z" fill="white"/>
<path d="M926.677 837.916H885.29V843H926.677V837.916Z" fill="white"/>
<path d="M1055.92 837.916H1014.53V843H1055.92V837.916Z" fill="white"/>
<path d="M1120.54 837.916H1079.16V843H1120.54V837.916Z" fill="white"/>
<path d="M1241.93 837.916H1200.54V843H1241.93V837.916Z" fill="white"/>
<path d="M1308 837.916H1266.61V843H1308V837.916Z" fill="white"/>
<path d="M904.234 650.66L881.791 693.434H926.677L904.234 650.66Z" fill="white"/>
<path d="M1094.47 650.66L1072.03 693.434H1116.91L1094.47 650.66Z" fill="white"/>
<path d="M1157.14 650.66L1134.7 693.434H1179.58L1157.14 650.66Z" fill="white"/>
<path d="M776.443 725.96L754 768.733H798.886L776.443 725.96Z" fill="white"/>
<path d="M839.114 725.96L816.671 768.733H861.557L839.114 725.96Z" fill="white"/>
<path d="M902.543 725.96L880.1 768.733H924.986L902.543 725.96Z" fill="white"/>
<path d="M967.89 800.047L945.448 842.82H990.333L967.89 800.047Z" fill="white"/>
<path d="M1159.21 799.927L1136.77 842.7H1181.66L1159.21 799.927Z" fill="white"/>
<path d="M1094.47 725.96L1072.03 768.733H1116.91L1094.47 725.96Z" fill="white"/>
</g>
<defs>
<clipPath id="clip0_242_1932">
<rect width="1440" height="960" fill="white"/>
</clipPath>
</defs>
</svg>
