<svg width="164" height="66" viewBox="0 0 164 66" fill="none" xmlns="http://www.w3.org/2000/svg">
<g clip-path="url(#clip0_3101_3346)">
<path d="M0 19.2598V27.8298L27.22 39.8798V31.3098L0 19.2598Z" fill="white"/>
<path d="M81.6599 31.3098L54.4399 19.2598V27.8298L81.6599 39.8798V31.3098Z" fill="white"/>
<path d="M136.1 31.3098L108.88 19.2598V27.8298L136.1 39.8798V31.3098Z" fill="white"/>
<path d="M136.1 48.3901L108.88 36.3401V27.8301L81.66 39.8801V48.3901L54.44 36.3401V27.8301L27.22 39.8801V48.3901L0 36.3401V44.9101L27.22 56.9601V48.4501L54.44 36.4001V44.9101L81.66 56.9601V48.4501L108.88 36.4001V44.9101L136.1 56.9601V48.4501L163.33 36.4001V27.8301L136.1 39.8801V48.3901Z" fill="white"/>
<path d="M0 0.469727V9.03973L27.22 21.0897V12.5197L0 0.469727Z" fill="white"/>
<path d="M27.22 29.66L54.44 17.61V9.04004L27.22 21.09V29.66Z" fill="white"/>
<path d="M54.4399 0.469727V9.03973L81.6599 21.0897V12.5197L54.4399 0.469727Z" fill="white"/>
<path d="M81.6599 29.66L108.88 17.61V9.04004L81.6599 21.09V29.66Z" fill="white"/>
<path d="M108.88 0.469727V9.03973L136.1 21.0897V12.5197L108.88 0.469727Z" fill="white"/>
<path d="M136.1 21.09V29.66L163.33 17.61V9.04004L136.1 21.09Z" fill="white"/>
<path d="M27.22 65.5302L54.44 53.4802V44.9102L27.22 56.9602V65.5302Z" fill="white"/>
<path d="M81.6599 65.5302L108.88 53.4802V44.9102L81.6599 56.9602V65.5302Z" fill="white"/>
<path d="M163.33 53.4802V44.9102L136.1 56.9602V65.5302L163.33 53.4802Z" fill="white"/>
</g>
<defs>
<clipPath id="clip0_3101_3346">
<rect width="163.33" height="65.06" fill="white" transform="translate(0 0.469727)"/>
</clipPath>
</defs>
</svg>
